<?xml version="1.0" encoding="UTF-8"?>
<svg id="Camada_1" data-name="Camada 1" xmlns="http://www.w3.org/2000/svg" viewBox="0 0 1184.5 372.3">
  <defs>
    <style>
      .cls-1 {
        fill: #2563eb;
      }
    </style>
  </defs>
  <g>
    <path class="cls-1" d="M524.69,100.29c-.67-1.22-1.59-2.16-2.76-2.8-1.17-.64-2.53-.96-4.09-.96-1.73,0-3.26.39-4.59,1.17-1.34.78-2.38,1.89-3.13,3.34-.75,1.45-1.13,3.12-1.13,5.01s.38,3.65,1.15,5.09c.76,1.45,1.83,2.56,3.19,3.34,1.36.78,2.95,1.17,4.76,1.17,2.23,0,4.05-.59,5.47-1.77,1.42-1.18,2.35-2.83,2.8-4.95h-10.02v-4.47h15.78v5.09c-.39,2.03-1.23,3.91-2.5,5.64-1.28,1.73-2.93,3.11-4.95,4.15-2.02,1.04-4.28,1.57-6.78,1.57-2.81,0-5.35-.63-7.62-1.9-2.27-1.27-4.05-3.03-5.34-5.28-1.29-2.25-1.94-4.81-1.94-7.68s.65-5.43,1.94-7.7c1.29-2.27,3.07-4.04,5.34-5.3,2.27-1.27,4.79-1.9,7.58-1.9,3.28,0,6.14.8,8.56,2.4,2.42,1.6,4.09,3.85,5.01,6.74h-6.72Z"/>
    <path class="cls-1" d="M542.31,96.24v7.31h9.81v4.63h-9.81v7.72h11.06v4.76h-16.91v-29.18h16.91v4.76h-11.06Z"/>
    <path class="cls-1" d="M563.25,119.92c-1.63-.7-2.92-1.7-3.86-3.01-.95-1.31-1.43-2.85-1.46-4.63h6.26c.08,1.2.51,2.14,1.27,2.84.76.7,1.82,1.04,3.15,1.04s2.44-.33,3.21-.98c.78-.65,1.17-1.51,1.17-2.57,0-.86-.27-1.57-.79-2.13-.53-.56-1.19-.99-1.98-1.31-.79-.32-1.89-.68-3.28-1.06-1.89-.56-3.43-1.11-4.61-1.65-1.18-.54-2.2-1.36-3.05-2.46-.85-1.1-1.27-2.57-1.27-4.4,0-1.73.43-3.23,1.29-4.51.86-1.28,2.07-2.26,3.63-2.94,1.56-.68,3.34-1.02,5.34-1.02,3.01,0,5.45.73,7.33,2.19,1.88,1.46,2.92,3.5,3.11,6.12h-6.43c-.06-1-.48-1.83-1.27-2.48-.79-.65-1.84-.98-3.15-.98-1.14,0-2.05.29-2.73.88-.68.58-1.02,1.43-1.02,2.55,0,.78.26,1.43.77,1.94.51.52,1.15.93,1.92,1.25.77.32,1.84.69,3.24,1.11,1.89.56,3.44,1.11,4.63,1.67,1.2.56,2.23,1.39,3.09,2.5s1.29,2.57,1.29,4.38c0,1.56-.4,3.01-1.21,4.34-.81,1.34-1.99,2.4-3.55,3.19-1.56.79-3.41,1.19-5.55,1.19-2.03,0-3.86-.35-5.49-1.04Z"/>
    <path class="cls-1" d="M603.93,91.53v4.72h-7.77v24.42h-5.84v-24.42h-7.77v-4.72h21.38Z"/>
    <path class="cls-1" d="M626.06,115.12h-11.61l-1.92,5.55h-6.14l10.48-29.18h6.8l10.48,29.18h-6.18l-1.92-5.55ZM614.47,85.16c.9-.9,2.05-1.36,3.44-1.36.58,0,1.1.09,1.54.27.44.18.95.44,1.5.77.83.53,1.53.79,2.09.79,1.03,0,1.63-.6,1.8-1.79h3.13c-.25,1.84-.83,3.21-1.73,4.11-.91.91-2.05,1.36-3.44,1.36-.58,0-1.1-.09-1.54-.27-.45-.18-.95-.44-1.5-.77-.81-.56-1.5-.83-2.09-.83-1.03,0-1.64.61-1.84,1.84h-3.09c.25-1.84.83-3.21,1.73-4.11ZM624.47,110.44l-4.22-12.19-4.22,12.19h8.43Z"/>
    <path class="cls-1" d="M644.09,119.04c-2.28-1.28-4.09-3.05-5.43-5.32-1.34-2.27-2-4.84-2-7.7s.67-5.39,2-7.66,3.14-4.04,5.43-5.32c2.28-1.28,4.79-1.92,7.51-1.92s5.27.64,7.54,1.92c2.27,1.28,4.06,3.05,5.39,5.32,1.32,2.27,1.98,4.82,1.98,7.66s-.66,5.43-1.98,7.7c-1.32,2.27-3.12,4.04-5.41,5.32-2.28,1.28-4.79,1.92-7.51,1.92s-5.23-.64-7.51-1.92ZM656.24,114.55c1.34-.79,2.38-1.93,3.13-3.4.75-1.48,1.13-3.19,1.13-5.14s-.38-3.65-1.13-5.11c-.75-1.46-1.8-2.58-3.13-3.36-1.34-.78-2.88-1.17-4.63-1.17s-3.31.39-4.65,1.17c-1.35.78-2.4,1.9-3.15,3.36-.75,1.46-1.13,3.17-1.13,5.11s.38,3.66,1.13,5.14c.75,1.48,1.8,2.61,3.15,3.4,1.35.79,2.9,1.19,4.65,1.19s3.3-.4,4.63-1.19Z"/>
    <path class="cls-1" d="M685.36,119.92c-1.63-.7-2.92-1.7-3.86-3.01-.95-1.31-1.43-2.85-1.46-4.63h6.26c.08,1.2.51,2.14,1.27,2.84.76.7,1.82,1.04,3.15,1.04s2.44-.33,3.21-.98c.78-.65,1.17-1.51,1.17-2.57,0-.86-.27-1.57-.79-2.13-.53-.56-1.19-.99-1.98-1.31-.79-.32-1.89-.68-3.28-1.06-1.89-.56-3.43-1.11-4.61-1.65-1.18-.54-2.2-1.36-3.05-2.46-.85-1.1-1.27-2.57-1.27-4.4,0-1.73.43-3.23,1.29-4.51.86-1.28,2.07-2.26,3.63-2.94,1.56-.68,3.34-1.02,5.34-1.02,3.01,0,5.45.73,7.33,2.19s2.92,3.5,3.11,6.12h-6.43c-.06-1-.48-1.83-1.27-2.48-.79-.65-1.84-.98-3.15-.98-1.14,0-2.05.29-2.73.88-.68.58-1.02,1.43-1.02,2.55,0,.78.26,1.43.77,1.94.51.52,1.15.93,1.92,1.25.77.32,1.84.69,3.24,1.11,1.89.56,3.44,1.11,4.63,1.67,1.2.56,2.23,1.39,3.09,2.5s1.29,2.57,1.29,4.38c0,1.56-.4,3.01-1.21,4.34-.81,1.34-1.99,2.4-3.55,3.19-1.56.79-3.41,1.19-5.55,1.19-2.03,0-3.86-.35-5.49-1.04Z"/>
    <path class="cls-1" d="M712.06,91.53v29.14h-5.84v-29.14h5.84Z"/>
    <path class="cls-1" d="M749.59,91.53v29.14h-5.84v-18.95l-7.81,18.95h-4.43l-7.85-18.95v18.95h-5.84v-29.14h6.64l9.27,21.67,9.27-21.67h6.6Z"/>
    <path class="cls-1" d="M775.49,104.93c-.74,1.36-1.89,2.46-3.47,3.3-1.57.83-3.56,1.25-5.95,1.25h-4.88v11.19h-5.84v-29.14h10.73c2.25,0,4.17.39,5.76,1.17,1.59.78,2.78,1.85,3.57,3.22.79,1.36,1.19,2.91,1.19,4.63,0,1.56-.37,3.02-1.11,4.38ZM769.42,103.65c.78-.74,1.17-1.77,1.17-3.11,0-2.84-1.59-4.26-4.76-4.26h-4.63v8.48h4.63c1.61,0,2.81-.37,3.59-1.11Z"/>
    <path class="cls-1" d="M786.58,116.03h9.6v4.63h-15.45v-29.14h5.84v24.51Z"/>
    <path class="cls-1" d="M805.74,96.24v7.31h9.81v4.63h-9.81v7.72h11.06v4.76h-16.91v-29.18h16.91v4.76h-11.06Z"/>
    <path class="cls-1" d="M826.68,119.92c-1.63-.7-2.92-1.7-3.86-3.01-.95-1.31-1.43-2.85-1.46-4.63h6.26c.08,1.2.51,2.14,1.27,2.84.76.7,1.82,1.04,3.15,1.04s2.44-.33,3.21-.98c.78-.65,1.17-1.51,1.17-2.57,0-.86-.27-1.57-.79-2.13-.53-.56-1.19-.99-1.98-1.31-.79-.32-1.89-.68-3.28-1.06-1.89-.56-3.43-1.11-4.61-1.65-1.18-.54-2.2-1.36-3.05-2.46-.85-1.1-1.27-2.57-1.27-4.4,0-1.73.43-3.23,1.29-4.51.86-1.28,2.07-2.26,3.63-2.94,1.56-.68,3.34-1.02,5.34-1.02,3.01,0,5.45.73,7.33,2.19s2.92,3.5,3.11,6.12h-6.43c-.06-1-.48-1.83-1.27-2.48-.79-.65-1.84-.98-3.15-.98-1.14,0-2.05.29-2.73.88-.68.58-1.02,1.43-1.02,2.55,0,.78.26,1.43.77,1.94.51.52,1.15.93,1.92,1.25.77.32,1.84.69,3.24,1.11,1.89.56,3.44,1.11,4.63,1.67,1.2.56,2.23,1.39,3.09,2.5s1.29,2.57,1.29,4.38c0,1.56-.4,3.01-1.21,4.34-.81,1.34-1.99,2.4-3.55,3.19-1.56.79-3.41,1.19-5.55,1.19-2.03,0-3.86-.35-5.49-1.04Z"/>
    <path class="cls-1" d="M875.73,93.32c2.32,1.2,4.12,2.9,5.39,5.11,1.27,2.21,1.9,4.78,1.9,7.7s-.63,5.48-1.9,7.66c-1.27,2.19-3.06,3.88-5.39,5.07-2.32,1.2-5.02,1.79-8.08,1.79h-10.19v-29.14h10.19c3.06,0,5.75.6,8.08,1.79ZM874.54,113.19c1.67-1.67,2.5-4.02,2.5-7.05s-.83-5.41-2.5-7.12c-1.67-1.71-4.04-2.57-7.1-2.57h-4.13v19.25h4.13c3.06,0,5.43-.83,7.1-2.5Z"/>
    <path class="cls-1" d="M893.24,96.24v7.31h9.81v4.63h-9.81v7.72h11.06v4.76h-16.91v-29.18h16.91v4.76h-11.06Z"/>
    <path class="cls-1" d="M937.41,115.12h-11.61l-1.92,5.55h-6.14l10.48-29.18h6.81l10.48,29.18h-6.18l-1.92-5.55ZM935.83,110.44l-4.22-12.19-4.22,12.19h8.43Z"/>
    <path class="cls-1" d="M955.28,116.03h9.6v4.63h-15.45v-29.14h5.84v24.51Z"/>
    <path class="cls-1" d="M974.36,91.53v18.03c0,1.98.52,3.49,1.55,4.53,1.03,1.04,2.48,1.57,4.34,1.57s3.35-.52,4.38-1.57c1.03-1.04,1.54-2.55,1.54-4.53v-18.03h5.89v17.99c0,2.48-.54,4.57-1.61,6.28-1.07,1.71-2.5,3-4.3,3.86-1.79.86-3.79,1.29-5.99,1.29s-4.14-.43-5.91-1.29c-1.77-.86-3.17-2.15-4.2-3.86-1.03-1.71-1.55-3.81-1.55-6.28v-17.99h5.84Z"/>
    <path class="cls-1" d="M1017.99,100.29c-.67-1.22-1.59-2.16-2.76-2.8-1.17-.64-2.53-.96-4.09-.96-1.73,0-3.26.39-4.59,1.17-1.34.78-2.38,1.89-3.13,3.34-.75,1.45-1.13,3.12-1.13,5.01s.38,3.65,1.15,5.09c.76,1.45,1.83,2.56,3.19,3.34,1.36.78,2.95,1.17,4.76,1.17,2.23,0,4.05-.59,5.47-1.77,1.42-1.18,2.35-2.83,2.8-4.95h-10.02v-4.47h15.78v5.09c-.39,2.03-1.23,3.91-2.5,5.64-1.28,1.73-2.93,3.11-4.95,4.15s-4.28,1.57-6.78,1.57c-2.81,0-5.35-.63-7.62-1.9s-4.05-3.03-5.34-5.28-1.94-4.81-1.94-7.68.65-5.43,1.94-7.7,3.07-4.04,5.34-5.3c2.27-1.27,4.79-1.9,7.58-1.9,3.28,0,6.14.8,8.56,2.4,2.42,1.6,4.09,3.85,5.01,6.74h-6.72Z"/>
    <path class="cls-1" d="M1035.52,91.53v18.03c0,1.98.52,3.49,1.55,4.53,1.03,1.04,2.48,1.57,4.34,1.57s3.35-.52,4.38-1.57c1.03-1.04,1.54-2.55,1.54-4.53v-18.03h5.89v17.99c0,2.48-.54,4.57-1.61,6.28-1.07,1.71-2.5,3-4.3,3.86-1.79.86-3.79,1.29-5.99,1.29s-4.14-.43-5.91-1.29c-1.77-.86-3.17-2.15-4.2-3.86-1.03-1.71-1.55-3.81-1.55-6.28v-17.99h5.84Z"/>
    <path class="cls-1" d="M1064.7,96.24v7.31h9.81v4.63h-9.81v7.72h11.06v4.76h-16.91v-29.18h16.91v4.76h-11.06ZM1071.67,85.47l-9.6,4.38v-4.17l9.6-4.97v4.76Z"/>
    <path class="cls-1" d="M1086.91,91.53v29.14h-5.84v-29.14h5.84Z"/>
    <path class="cls-1" d="M1097.24,119.92c-1.63-.7-2.92-1.7-3.86-3.01-.95-1.31-1.43-2.85-1.46-4.63h6.26c.08,1.2.51,2.14,1.27,2.84.76.7,1.82,1.04,3.15,1.04s2.44-.33,3.22-.98c.78-.65,1.17-1.51,1.17-2.57,0-.86-.26-1.57-.79-2.13-.53-.56-1.19-.99-1.98-1.31-.79-.32-1.89-.68-3.28-1.06-1.89-.56-3.43-1.11-4.61-1.65-1.18-.54-2.2-1.36-3.05-2.46-.85-1.1-1.27-2.57-1.27-4.4,0-1.73.43-3.23,1.29-4.51.86-1.28,2.07-2.26,3.63-2.94,1.56-.68,3.34-1.02,5.34-1.02,3.01,0,5.45.73,7.33,2.19s2.92,3.5,3.11,6.12h-6.43c-.06-1-.48-1.83-1.27-2.48-.79-.65-1.84-.98-3.15-.98-1.14,0-2.05.29-2.73.88-.68.58-1.02,1.43-1.02,2.55,0,.78.26,1.43.77,1.94.51.52,1.15.93,1.92,1.25.77.32,1.84.69,3.24,1.11,1.89.56,3.44,1.11,4.63,1.67,1.2.56,2.23,1.39,3.09,2.5.86,1.11,1.29,2.57,1.29,4.38,0,1.56-.4,3.01-1.21,4.34-.81,1.34-1.99,2.4-3.55,3.19-1.56.79-3.41,1.19-5.55,1.19-2.03,0-3.86-.35-5.49-1.04Z"/>
  </g>
  <g>
    <path class="cls-1" d="M375.13,241.22v-9.7c-2.91,8.09-7.48,14.36-13.71,18.8-6.23,4.45-13.47,6.67-21.72,6.67-5.18,0-9.91-.93-14.19-2.79-4.29-1.86-7.97-4.41-11.04-7.64-3.07-3.23-5.46-7.12-7.16-11.65-1.7-4.53-2.55-9.54-2.55-15.04,0-11.65,3.8-20.82,11.4-27.54,7.6-6.71,18.03-10.07,31.3-10.07,3.4,0,7.44.24,12.13.73,4.69.49,9.86,1.21,15.53,2.18v-.97c0-5.17-1.66-8.89-4.97-11.16-3.32-2.26-8.78-3.4-16.38-3.4s-15.43.98-23.78,2.94c-7.57,1.78-14.8-4.06-14.8-11.83v-14.56c0-5.5,3.69-10.33,9-11.73,1.11-.29,2.23-.57,3.37-.85,4.37-1.05,8.81-1.94,13.34-2.67,4.53-.73,8.98-1.29,13.34-1.7,4.37-.4,8.33-.61,11.89-.61,8.73,0,16.54,1.18,23.41,3.52,6.87,2.35,12.74,5.7,17.59,10.07s8.57,9.7,11.16,16.01c2.59,6.31,3.88,13.34,3.88,21.11v61.87c0,6.7-5.43,12.13-12.13,12.13h-22.81c-6.7,0-12.13-5.43-12.13-12.13ZM350.62,216.72c0,2.91.89,5.26,2.67,7.04,1.78,1.78,4.12,2.67,7.04,2.67,4.37,0,7.92-1.9,10.68-5.7,2.75-3.8,4.12-8.77,4.12-14.92v-.49c-.81-.64-2.75-.97-5.82-.97-5.99,0-10.6,1.09-13.83,3.28-3.24,2.18-4.85,5.22-4.85,9.1Z"/>
    <path class="cls-1" d="M453.74,81.09h17.71c6.7,0,12.13,5.43,12.13,12.13v148c0,6.7-5.43,12.13-12.13,12.13h-17.71c-6.7,0-12.13-5.43-12.13-12.13V93.23c0-6.7,5.43-12.13,12.13-12.13Z"/>
    <path class="cls-1" d="M537.92,131.08c6.7,0,12.13,5.43,12.13,12.13v54.1c0,14.4,4.28,21.59,12.86,21.59s12.62-7.2,12.62-21.59v-54.1c0-6.7,5.43-12.13,12.13-12.13h22.81c6.7,0,12.13,5.43,12.13,12.13v98.02c0,6.7-5.43,12.13-12.13,12.13h-22.81c-6.7,0-12.13-5.43-12.13-12.13v-9.95c-6.15,17.15-17.47,25.72-33.97,25.72-12.29,0-21.8-4.61-28.51-13.83-6.71-9.22-10.07-22.24-10.07-39.06v-60.9c0-6.7,5.43-12.13,12.13-12.13h22.81Z"/>
    <path class="cls-1" d="M719.64,224.97c-6.79,13.26-18.12,19.89-33.97,19.89-7.28,0-13.87-1.41-19.77-4.25-5.91-2.83-11-6.83-15.29-12.01-4.29-5.17-7.6-11.4-9.95-18.68-2.35-7.28-3.52-15.29-3.52-24.02s1.17-16.7,3.52-23.9c2.34-7.2,5.62-13.34,9.83-18.44,4.2-5.1,9.3-9.06,15.29-11.89,5.98-2.83,12.62-4.25,19.89-4.25,17.95,0,30.08,8.41,36.39,25.23v-9.46c0-6.7,5.43-12.13,12.13-12.13h20.17c6.69,0,12.12,5.41,12.13,12.1l.21,89.31c0,21.67-5.5,37.64-16.5,47.92-11,10.27-28.14,15.41-51.44,15.41-3.07,0-6.71-.08-10.92-.24-4.21-.16-8.45-.36-12.74-.61-4.29-.24-8.21-.53-11.77-.85-.04,0-.07,0-.11,0-4.62-.42-8.14-4.31-8.14-8.95v-21.59c0-5.44,4.79-9.64,10.18-8.91,1.47.2,3.01.41,4.62.63,5.82.81,11.65,1.21,17.47,1.21,21.51,0,32.27-7.36,32.27-22.08v-9.46ZM719.64,185.91c0-6.14-1.58-10.92-4.73-14.31-3.15-3.4-7.48-5.1-12.98-5.1s-9.79,1.7-12.86,5.1c-3.07,3.4-4.61,8.17-4.61,14.31s1.58,11,4.73,14.56c3.15,3.56,7.4,5.34,12.74,5.34s9.83-1.78,12.98-5.34c3.15-3.56,4.73-8.41,4.73-14.56Z"/>
    <path class="cls-1" d="M863.76,224.97c-6.79,13.26-18.12,19.89-33.97,19.89-7.28,0-13.87-1.41-19.77-4.25-5.91-2.83-11-6.83-15.29-12.01-4.29-5.17-7.6-11.4-9.95-18.68-2.35-7.28-3.52-15.29-3.52-24.02s1.17-16.7,3.52-23.9c2.34-7.2,5.62-13.34,9.83-18.44,4.2-5.1,9.3-9.06,15.28-11.89,5.98-2.83,12.62-4.25,19.9-4.25,17.95,0,30.08,8.41,36.39,25.23v-9.46c0-6.7,5.43-12.13,12.13-12.13h20.17c6.69,0,12.11,5.41,12.13,12.1l.21,89.31c0,21.67-5.5,37.64-16.5,47.92-11,10.27-28.14,15.41-51.44,15.41-3.07,0-6.71-.08-10.92-.24-4.21-.16-8.45-.36-12.74-.61-4.29-.24-8.21-.53-11.77-.85-.04,0-.07,0-.11,0-4.62-.42-8.14-4.31-8.14-8.95v-21.59c0-5.44,4.79-9.64,10.18-8.91,1.47.2,3.01.41,4.62.63,5.82.81,11.65,1.21,17.47,1.21,21.51,0,32.27-7.36,32.27-22.08v-9.46ZM863.76,185.91c0-6.14-1.58-10.92-4.73-14.31-3.15-3.4-7.48-5.1-12.98-5.1s-9.79,1.7-12.86,5.1c-3.07,3.4-4.61,8.17-4.61,14.31s1.58,11,4.73,14.56c3.15,3.56,7.4,5.34,12.74,5.34s9.83-1.78,12.98-5.34c3.15-3.56,4.73-8.41,4.73-14.56Z"/>
    <path class="cls-1" d="M925.38,192.22c0-9.7,1.49-18.52,4.49-26.45,2.99-7.92,7.28-14.76,12.86-20.5,5.58-5.74,12.25-10.15,20.02-13.22,7.76-3.07,16.34-4.61,25.72-4.61s18.16,1.54,25.84,4.61c7.68,3.07,14.31,7.48,19.9,13.22,5.58,5.74,9.86,12.58,12.86,20.5,2.99,7.93,4.49,16.74,4.49,26.45s-1.5,18.52-4.49,26.45c-2.99,7.93-7.28,14.76-12.86,20.5-5.58,5.74-12.22,10.15-19.9,13.22-7.68,3.07-16.3,4.61-25.84,4.61s-17.95-1.54-25.72-4.61c-7.76-3.07-14.44-7.48-20.02-13.22-5.58-5.74-9.87-12.57-12.86-20.5-2.99-7.92-4.49-16.74-4.49-26.45ZM972.69,192.22c0,8.09,1.41,14.4,4.25,18.92,2.83,4.53,6.67,6.79,11.52,6.79s8.69-2.26,11.52-6.79c2.83-4.53,4.25-10.84,4.25-18.92s-1.42-14.19-4.25-18.8c-2.83-4.61-6.67-6.91-11.52-6.91s-8.7,2.3-11.52,6.91c-2.83,4.61-4.25,10.88-4.25,18.8Z"/>
    <path class="cls-1" d="M1099.83,131.08c6.7,0,12.13,5.43,12.13,12.13v54.1c0,14.4,4.28,21.59,12.86,21.59s12.62-7.2,12.62-21.59v-54.1c0-6.7,5.43-12.13,12.13-12.13h22.81c6.7,0,12.13,5.43,12.13,12.13v98.02c0,6.7-5.43,12.13-12.13,12.13h-22.81c-6.7,0-12.13-5.43-12.13-12.13v-9.95c-6.15,17.15-17.47,25.72-33.97,25.72-12.29,0-21.8-4.61-28.51-13.83-6.71-9.22-10.07-22.24-10.07-39.06v-60.9c0-6.7,5.43-12.13,12.13-12.13h22.81Z"/>
  </g>
  <g>
    <path class="cls-1" d="M0,138.12c0-9.32,1.44-17.79,4.31-25.41,2.87-7.61,6.99-14.18,12.35-19.7,5.36-5.51,11.77-9.75,19.23-12.7,7.46-2.95,15.7-4.43,24.71-4.43s17.44,1.48,24.83,4.43c7.38,2.95,13.75,7.19,19.12,12.7,5.36,5.52,9.48,12.09,12.35,19.7,2.87,7.62,4.31,16.09,4.31,25.41s-1.44,17.8-4.31,25.41c-2.88,7.62-6.99,14.18-12.35,19.7-5.36,5.52-11.74,9.76-19.12,12.71-7.38,2.95-15.66,4.43-24.83,4.43s-17.25-1.48-24.71-4.43c-7.46-2.95-13.87-7.19-19.23-12.71-5.36-5.51-9.48-12.08-12.35-19.7-2.88-7.61-4.31-16.08-4.31-25.41ZM45.46,138.12c0,7.77,1.36,13.83,4.08,18.18,2.72,4.35,6.41,6.53,11.07,6.53s8.35-2.17,11.07-6.53c2.72-4.35,4.08-10.41,4.08-18.18s-1.36-13.64-4.08-18.07c-2.72-4.43-6.41-6.64-11.07-6.64s-8.36,2.21-11.07,6.64c-2.72,4.43-4.08,10.45-4.08,18.07Z"/>
    <path class="cls-1" d="M160.52,240.86c-2.17,4.12-5.28,7.69-9.32,10.72-4.04,3.03-8.86,5.36-14.45,6.99-5.6,1.63-11.73,2.45-18.42,2.45-6.68,0-12.74-.82-18.18-2.45-5.44-1.63-10.06-3.92-13.87-6.88-3.81-2.95-6.76-6.53-8.86-10.72-1.05-2.1-1.84-4.31-2.36-6.64-.96-4.25-4.61-7.34-8.96-7.34h-22.43c-5.44,0-9.77,4.67-9.24,10.08.83,8.43,2.73,16.34,5.69,23.72,4.12,10.26,9.91,19,17.37,26.23,7.46,7.23,16.4,12.86,26.81,16.9,10.41,4.04,21.99,6.06,34.73,6.06,12.75,0,24.32-2.02,34.73-6.06,10.41-4.04,19.35-9.67,26.81-16.9,7.46-7.23,13.25-15.97,17.37-26.23,2.96-7.38,4.86-15.29,5.69-23.72.53-5.41-3.8-10.08-9.24-10.08h-22.42c-4.35,0-8.01,3.08-9,7.32-.54,2.31-1.36,4.5-2.45,6.56Z"/>
    <path class="cls-1" d="M258.11,66.91c-2-2.88-5.29-4.59-8.8-4.59h-26.64c-4.37,0-8.3,2.67-9.93,6.7l-25.83,59.89-2.81-8.93c-1.35-4.52-5.53-7.66-10.27-7.66h-26.17c-3.4,0-6.63,1.64-8.64,4.38-2.01,2.74-2.6,6.32-1.58,9.56l20.8,60.63c1.46,4.39,5.53,7.33,10.17,7.33h34.21c4.36,0,8.31-2.68,9.94-6.7l46.66-110.36.16-.39c1.22-3.29.75-6.97-1.25-9.84Z"/>
  </g>
</svg>