<?xml version="1.0" encoding="UTF-8"?>
<svg id="Camada_1" data-name="Camada 1" xmlns="http://www.w3.org/2000/svg" viewBox="0 0 330 330">
  <defs>
    <style>
      .cls-1 {
        fill: #f9f8ff;
      }

      .cls-2 {
        fill: #2563eb;
      }
    </style>
  </defs>
  <rect class="cls-2" width="330" height="330" rx="60" ry="60"/>
  <g>
    <path class="cls-1" d="M58.8,125.77c0-7.62,1.17-14.53,3.52-20.76,2.35-6.22,5.71-11.58,10.09-16.09,4.38-4.5,9.62-7.97,15.71-10.38,6.09-2.41,12.82-3.62,20.19-3.62s14.25,1.21,20.28,3.62c6.03,2.41,11.23,5.87,15.62,10.38,4.38,4.51,7.74,9.87,10.09,16.09,2.35,6.22,3.52,13.14,3.52,20.76s-1.18,14.54-3.52,20.76c-2.35,6.22-5.71,11.59-10.09,16.09-4.38,4.51-9.59,7.97-15.62,10.38-6.03,2.41-12.79,3.62-20.28,3.62s-14.09-1.21-20.19-3.62c-6.09-2.41-11.33-5.87-15.71-10.38-4.38-4.5-7.74-9.87-10.09-16.09-2.35-6.22-3.52-13.14-3.52-20.76ZM95.93,125.77c0,6.35,1.11,11.3,3.33,14.85,2.22,3.56,5.24,5.33,9.05,5.33s6.82-1.78,9.05-5.33c2.22-3.55,3.33-8.5,3.33-14.85s-1.11-11.14-3.33-14.76c-2.22-3.62-5.24-5.43-9.05-5.43s-6.83,1.81-9.05,5.43c-2.22,3.62-3.33,8.54-3.33,14.76Z"/>
    <path class="cls-1" d="M189.92,209.69c-1.78,3.36-4.31,6.28-7.62,8.76-3.3,2.48-7.24,4.38-11.81,5.71-4.57,1.33-9.58,2-15.04,2s-10.41-.67-14.85-2c-4.44-1.33-8.22-3.21-11.33-5.62-3.11-2.41-5.52-5.33-7.24-8.76-.86-1.71-1.5-3.52-1.93-5.43-.78-3.47-3.76-6-7.32-6h-18.32c-4.44,0-7.98,3.81-7.54,8.23.68,6.89,2.23,13.35,4.65,19.38,3.36,8.38,8.09,15.52,14.19,21.42,6.09,5.9,13.39,10.51,21.9,13.81,8.51,3.3,17.96,4.95,28.37,4.95s19.87-1.65,28.37-4.95c8.51-3.3,15.8-7.9,21.9-13.81,6.09-5.9,10.82-13.04,14.19-21.42,2.42-6.03,3.97-12.49,4.65-19.38.44-4.42-3.1-8.23-7.54-8.23h-18.31c-3.56,0-6.54,2.51-7.36,5.98-.44,1.89-1.11,3.67-2,5.36Z"/>
    <path class="cls-1" d="M269.63,67.6c-1.64-2.35-4.32-3.75-7.19-3.75h-21.76c-3.57,0-6.78,2.18-8.11,5.47l-21.1,48.92-2.3-7.3c-1.1-3.69-4.52-6.25-8.39-6.25h-21.38c-2.78,0-5.42,1.34-7.06,3.58-1.64,2.24-2.12,5.16-1.29,7.81l16.99,49.53c1.19,3.59,4.52,5.99,8.31,5.99h27.94c3.56,0,6.79-2.19,8.12-5.48l38.11-90.15.13-.32c.99-2.69.61-5.69-1.03-8.04Z"/>
  </g>
</svg>